<?xml version="1.0" standalone="no"?>
<!DOCTYPE svg PUBLIC "-//W3C//DTD SVG 20010904//EN"
 "http://www.w3.org/TR/2001/REC-SVG-20010904/DTD/svg10.dtd">
<svg version="1.0" xmlns="http://www.w3.org/2000/svg"
 width="512.000000pt" height="512.000000pt" viewBox="0 0 512.000000 512.000000"
 preserveAspectRatio="xMidYMid meet">
<metadata>
Created by potrace 1.16, written by Peter Selinger 2001-2019
</metadata>
<g transform="translate(0.000000,512.000000) scale(0.100000,-0.100000)"
fill="#000000" stroke="none">
<path d="M2172 4708 c-15 -15 -15 -43 0 -67 9 -14 8 -73 -1 -247 -12 -224 -11
-229 9 -256 14 -19 20 -43 20 -82 0 -30 5 -58 10 -61 6 -3 10 -15 10 -26 0
-11 11 -24 24 -30 14 -7 27 -21 30 -33 3 -14 18 -25 38 -31 28 -9 33 -15 36
-46 l3 -36 -131 -6 c-72 -4 -143 -12 -158 -19 -14 -7 -36 -30 -48 -51 -11 -20
-42 -51 -69 -68 -64 -41 -170 -143 -185 -179 -8 -19 -21 -29 -43 -33 -18 -4
-42 -9 -54 -13 -17 -5 -23 -2 -23 9 0 23 -49 77 -69 77 -25 0 -348 -75 -456
-106 -49 -14 -100 -35 -113 -47 -57 -53 -87 -281 -62 -473 21 -162 32 -174 82
-93 30 48 32 49 41 27 13 -36 58 -78 84 -78 13 0 23 -4 23 -9 0 -5 -21 -87
-46 -183 -26 -95 -48 -189 -49 -208 -1 -19 -5 -49 -9 -66 -5 -23 -2 -37 13
-56 21 -26 20 -29 -15 -76 -1 -2 -16 4 -34 13 -42 22 -60 14 -122 -54 -92 -99
-161 -263 -208 -493 -22 -106 -15 -139 40 -178 l32 -23 -7 -91 c-4 -50 -18
-126 -32 -169 -27 -84 -29 -75 21 -142 6 -8 1 -38 -14 -84 -12 -39 -22 -92
-22 -119 1 -26 1 -65 2 -86 0 -21 9 -53 19 -70 10 -17 24 -49 31 -71 7 -22 27
-58 45 -80 18 -22 35 -50 39 -61 10 -32 121 -134 145 -134 27 0 27 2 -14 55
-19 25 -42 62 -51 83 -9 20 -23 51 -32 69 -13 26 -13 34 -3 47 8 9 16 16 20
16 3 0 28 -32 55 -70 42 -59 52 -68 65 -57 14 11 14 10 2 -6 -13 -16 -11 -22
22 -55 20 -20 39 -33 42 -30 4 3 -5 29 -19 57 -23 45 -24 51 -10 59 15 8 13
15 -17 56 -43 60 -78 126 -79 149 0 10 -4 27 -10 37 -8 15 -6 20 12 26 28 9
50 -18 96 -116 19 -41 36 -76 37 -78 2 -2 12 1 23 7 17 9 20 7 20 -14 0 -27
44 -95 50 -77 2 7 -6 38 -18 69 -12 32 -24 66 -27 76 -4 14 -12 17 -30 12 -21
-5 -22 -4 -12 14 10 15 9 25 -9 55 -11 19 -17 38 -12 41 9 6 4 39 -12 72 -8
16 -8 26 1 37 10 11 9 19 -1 35 -9 14 -9 24 -2 31 13 13 114 -57 114 -78 0 -8
8 -26 18 -40 10 -15 24 -46 30 -69 15 -50 44 -89 60 -79 7 4 12 34 12 75 0 53
-4 74 -20 94 -11 14 -23 47 -26 74 -3 26 -15 60 -25 75 -10 15 -19 33 -19 41
0 7 -20 26 -45 41 -68 44 -63 63 41 166 162 161 241 280 324 491 59 150 70
219 46 284 -21 53 -66 89 -102 82 -19 -3 -28 2 -38 21 -18 35 -3 82 27 82 12
0 28 4 34 8 16 10 56 108 74 180 9 38 17 52 31 52 40 0 74 100 85 246 l6 91
-32 19 c-36 21 -41 44 -8 44 37 0 44 -12 50 -85 7 -85 48 -294 83 -421 34
-121 48 -135 142 -136 62 -1 75 2 109 26 21 16 53 45 71 65 29 32 32 33 25 11
-4 -14 -8 -49 -8 -78 0 -47 4 -57 31 -81 24 -22 32 -39 37 -77 3 -27 8 -56 11
-64 6 -13 -9 -15 -108 -13 -91 3 -116 0 -126 -12 -7 -8 -17 -15 -22 -15 -27 0
-121 -57 -129 -78 -12 -32 -11 -419 1 -464 12 -42 34 -58 78 -58 31 0 42 -14
42 -56 0 -17 -6 -24 -20 -24 -34 0 -49 -39 -59 -155 -12 -137 -25 -445 -19
-445 3 0 13 80 23 177 l18 177 44 -190 c24 -104 46 -193 48 -199 16 -32 -11
146 -45 298 -39 172 -46 237 -34 284 5 20 31 39 41 30 2 -2 8 -41 14 -87 7
-61 19 -101 46 -154 26 -51 41 -100 54 -175 25 -144 51 -258 56 -244 5 15 -32
238 -62 373 -48 215 -67 322 -57 332 5 5 47 11 94 15 79 5 86 4 105 -16 12
-13 33 -56 48 -96 14 -40 46 -99 70 -129 47 -61 48 -65 102 -331 21 -108 29
-131 31 -100 3 41 -40 349 -59 419 -13 49 -5 57 16 14 37 -72 48 -78 155 -78
104 0 116 5 140 60 8 19 9 8 5 -50 -15 -197 -23 -376 -17 -385 5 -8 39 292 41
371 1 12 16 44 34 70 19 27 44 75 55 107 35 92 61 137 86 147 27 10 142 2 170
-12 22 -12 20 -32 -20 -248 -30 -156 -74 -438 -73 -460 1 -31 20 50 44 187 16
96 34 165 55 213 32 74 50 154 50 228 0 45 2 47 31 32 30 -17 26 -144 -11
-321 -17 -79 -33 -189 -35 -244 l-5 -100 24 135 c14 74 34 176 44 225 l19 90
13 -150 c18 -217 29 -248 24 -65 -7 211 -23 388 -39 427 -11 25 -20 33 -39 33
-22 0 -26 5 -26 30 0 26 4 30 38 35 74 11 86 19 101 60 15 44 29 413 17 460
-5 20 -20 32 -62 51 -30 13 -63 24 -73 24 -10 0 -26 9 -37 21 -17 19 -27 21
-117 17 -98 -4 -98 -4 -92 19 3 13 8 44 12 69 4 35 11 48 28 54 12 5 32 21 44
37 18 22 22 37 19 78 -3 27 -8 59 -13 69 -5 11 21 -10 57 -47 64 -65 67 -67
119 -69 153 -4 165 11 229 287 18 77 34 147 37 155 3 8 13 -16 23 -55 30 -117
42 -138 83 -146 13 -3 28 -34 55 -114 33 -99 40 -111 69 -124 20 -9 34 -24 38
-40 3 -14 8 -33 11 -42 3 -13 -6 -16 -53 -17 -64 -2 -94 -18 -132 -73 -35 -52
-26 -147 31 -310 68 -192 94 -233 328 -514 28 -33 50 -68 50 -78 0 -10 -16
-33 -34 -52 -35 -35 -56 -86 -56 -137 0 -15 -6 -33 -13 -40 -7 -7 -21 -38 -31
-68 -15 -44 -17 -66 -10 -109 5 -30 14 -56 21 -58 15 -5 41 44 49 96 4 23 10
41 14 41 15 0 20 33 8 48 -11 13 -10 15 4 9 11 -4 23 2 35 19 10 14 38 34 61
44 41 19 42 19 42 0 0 -10 -5 -22 -11 -26 -6 -3 -8 -16 -5 -27 3 -12 -2 -29
-11 -39 -9 -10 -17 -34 -17 -53 -1 -19 -7 -40 -14 -47 -7 -7 -12 -27 -12 -45
0 -19 -7 -44 -15 -56 -16 -25 -9 -43 20 -48 15 -3 21 -13 22 -39 l2 -35 -16
35 c-14 29 -17 32 -21 15 -2 -11 -11 -29 -18 -40 -32 -45 -5 -75 31 -35 10 11
24 20 32 20 10 0 12 10 7 41 -4 22 -2 50 4 62 6 12 13 33 15 47 8 38 30 92 49
119 16 23 17 23 42 5 16 -12 23 -25 19 -34 -3 -8 -14 -37 -24 -65 -9 -27 -31
-67 -48 -87 -34 -40 -40 -72 -15 -82 14 -5 12 -12 -10 -52 -14 -26 -26 -51
-26 -56 0 -11 38 8 67 34 21 19 21 22 6 47 -11 17 -12 22 -3 14 20 -19 30 -16
30 8 0 29 18 59 35 59 8 0 23 19 35 43 11 23 18 33 14 22 -3 -11 -9 -44 -14
-72 -11 -66 -38 -127 -79 -177 -17 -21 -28 -42 -25 -47 10 -17 66 25 113 85
25 32 60 73 76 90 17 17 52 72 78 123 38 73 45 96 38 115 -5 13 -14 52 -21 88
-6 36 -21 92 -31 124 l-20 59 32 33 c35 37 36 39 4 184 -22 99 -13 216 16 225
42 14 52 49 45 148 -13 190 -49 335 -114 461 -64 122 -123 163 -178 121 -27
-20 -31 -19 -49 15 -15 30 -15 32 7 49 l22 19 -18 57 c-14 47 -15 59 -5 66 11
6 11 16 1 51 -12 43 -82 335 -82 344 0 2 11 4 24 4 13 0 38 14 56 30 18 17 34
29 35 28 1 -2 14 -22 29 -46 49 -78 62 -47 72 178 9 212 -19 382 -70 415 -25
17 -115 45 -353 111 -151 41 -165 43 -186 29 -13 -8 -29 -26 -35 -40 -13 -29
-14 -29 -81 -14 -39 8 -50 15 -55 34 -6 23 -106 116 -187 174 -25 18 -53 47
-62 66 -25 53 -51 64 -171 72 -59 3 -109 9 -111 14 -3 4 -2 20 1 37 5 22 13
31 34 35 18 4 31 16 39 35 7 16 23 34 37 40 16 8 24 20 24 37 0 14 5 25 10 25
6 0 10 28 10 64 0 36 5 68 10 71 6 4 8 26 5 53 -3 26 -10 134 -15 239 -8 151
-7 197 2 213 17 26 0 55 -33 55 -20 0 -25 -6 -27 -33 -2 -22 2 -34 12 -38 14
-5 16 -30 15 -173 0 -91 -4 -186 -7 -211 l-7 -45 -30 37 c-17 21 -38 38 -47
38 -10 0 -20 10 -22 23 -3 12 -7 34 -10 49 -4 18 -23 38 -59 62 -85 57 -116
66 -222 66 -86 0 -101 -3 -154 -30 -32 -16 -75 -44 -95 -63 -30 -29 -36 -41
-36 -76 0 -37 -2 -41 -25 -41 -15 0 -28 -7 -32 -17 -4 -10 -19 -30 -35 -45
-22 -20 -28 -23 -28 -10 0 10 -5 109 -10 222 -9 197 -9 205 10 225 24 26 25
39 4 59 -19 19 -36 20 -52 4z m38 -33 c0 -8 -7 -15 -15 -15 -8 0 -15 7 -15 15
0 8 7 15 15 15 8 0 15 -7 15 -15z m838 -3 c2 -7 -3 -12 -12 -12 -9 0 -16 7
-16 16 0 17 22 14 28 -4z m4 -380 c2 -50 0 -92 -4 -92 -5 0 -7 62 -6 138 2
139 5 122 10 -46z m-299 147 c15 -7 27 -16 27 -21 0 -4 -19 -37 -42 -73 l-43
-65 -72 0 -71 0 -46 68 -45 67 47 23 c41 20 58 23 132 18 47 -2 98 -10 113
-17z m-554 -209 c0 -52 -2 -70 -9 -60 -5 8 -9 67 -8 130 1 97 2 107 8 60 5
-30 8 -89 9 -130z m649 153 l31 -28 -6 -102 -6 -103 -84 -25 c-104 -32 -200
-34 -300 -6 -40 11 -77 22 -83 26 -5 3 -10 27 -11 53 0 26 -4 70 -9 97 -8 48
-7 51 21 78 16 15 33 27 38 27 5 0 30 -31 56 -69 50 -74 64 -81 149 -81 53 0
64 9 116 93 23 37 45 67 49 67 4 0 21 -12 39 -27z m-481 -140 c-2 -16 -4 -3
-4 27 0 30 2 43 4 28 2 -16 2 -40 0 -55z m530 -86 c-2 -23 -3 -1 -3 48 0 50 1
68 3 42 2 -26 2 -67 0 -90z m52 -31 c-1 -45 -5 -110 -8 -146 -6 -54 -8 -36
-12 98 -3 132 -2 159 9 145 7 -10 12 -47 11 -97z m-638 -158 c-7 -26 -9 -5
-10 87 -1 158 13 206 17 58 1 -62 -2 -127 -7 -145z m666 60 c-2 -35 -3 -7 -3
62 0 69 1 97 3 63 2 -35 2 -91 0 -125z m-630 90 c-2 -18 -4 -6 -4 27 0 33 2
48 4 33 2 -15 2 -42 0 -60z m30 45 c-3 -10 -5 -4 -5 12 0 17 2 24 5 18 2 -7 2
-21 0 -30z m-90 -35 c-2 -13 -4 -3 -4 22 0 25 2 35 4 23 2 -13 2 -33 0 -45z
m-28 -60 l-2 -93 -8 75 c-7 69 -4 110 7 110 2 0 3 -42 3 -92z m754 -5 l-10
-78 -2 90 c-1 66 2 86 10 78 8 -8 9 -33 2 -90z m-786 15 c-2 -13 -4 -5 -4 17
-1 22 1 32 4 23 2 -10 2 -28 0 -40z m662 -18 c1 -30 -7 -44 -44 -80 -36 -35
-50 -59 -66 -113 l-20 -68 -20 25 c-19 25 -25 26 -119 26 -95 0 -99 -1 -118
-27 l-19 -26 -22 71 c-15 49 -34 86 -62 118 -29 34 -39 53 -35 68 3 12 6 29 6
39 0 9 7 17 15 17 10 0 15 -10 15 -34 0 -42 12 -52 73 -59 42 -6 50 -4 69 18
18 21 30 25 81 25 51 0 63 -4 84 -26 21 -22 29 -25 61 -19 68 12 87 27 85 65
-2 38 18 60 29 32 4 -9 7 -33 7 -52z m148 23 c-3 -10 -5 -2 -5 17 0 19 2 27 5
18 2 -10 2 -26 0 -35z m-537 7 c0 -5 -11 -10 -25 -10 -14 0 -25 5 -25 10 0 6
11 10 25 10 14 0 25 -4 25 -10z m295 0 c7 -11 -42 -26 -53 -16 -7 8 17 26 35
26 6 0 15 -4 18 -10z m-275 -40 c0 -5 -20 -10 -44 -10 -25 0 -48 5 -51 10 -4
6 13 10 44 10 28 0 51 -4 51 -10z m295 0 c-3 -5 -25 -10 -48 -9 -33 0 -38 2
-22 9 28 12 78 12 70 0z m69 -108 c-6 -31 -59 -91 -70 -79 -13 13 8 60 38 88
18 16 33 27 35 25 2 -1 0 -17 -3 -34z m-464 -21 c18 -44 9 -56 -23 -31 -18 15
-27 31 -27 51 0 26 2 28 19 20 10 -6 24 -24 31 -40z m20 -150 c0 -16 -4 -32
-10 -36 -13 -8 -44 52 -51 98 l-6 39 34 -35 c22 -24 33 -45 33 -66z m416 -12
c-15 -21 -28 -39 -31 -39 -3 0 -5 18 -5 39 0 28 8 49 28 72 l27 33 3 -33 c2
-23 -5 -45 -22 -72z m-123 40 c26 -34 42 -32 58 5 6 15 7 10 3 -19 -4 -22 -16
-55 -27 -74 l-20 -34 -23 28 c-22 27 -26 28 -103 27 -76 -1 -82 -3 -105 -29
l-25 -28 -15 37 c-20 46 -22 88 -4 70 18 -18 26 -15 43 18 15 30 16 30 105 30
87 0 89 0 113 -31z m215 -45 c19 -13 22 -24 22 -77 0 -62 -21 -194 -41 -254
-6 -18 -24 -44 -40 -58 l-31 -25 -257 0 c-291 0 -293 1 -324 77 -18 48 -40
222 -35 288 l3 50 53 3 c52 3 53 3 41 -19 -15 -28 -6 -206 13 -264 l13 -40
240 0 240 0 12 36 c6 20 17 92 23 160 6 68 14 127 16 131 8 12 27 9 52 -8z
m-775 -12 c-17 -9 -42 -24 -55 -33 -26 -19 -88 -33 -88 -20 0 5 9 20 20 34 20
25 39 31 125 35 l30 2 -32 -18z m923 -4 c18 -14 24 -16 15 -5 -12 15 -11 17 2
17 17 0 42 -22 58 -51 10 -19 8 -20 -28 -13 -53 9 -73 19 -108 48 l-30 25 31
1 c17 0 44 -10 60 -22z m-876 -153 c6 -49 13 -103 17 -119 5 -28 5 -28 -33
-22 -90 15 -175 16 -264 3 -91 -14 -93 -15 -35 -15 33 0 86 3 117 7 34 4 79 2
115 -5 32 -7 69 -13 83 -14 16 0 32 -12 45 -32 11 -17 33 -41 48 -52 27 -20
41 -21 286 -21 288 0 286 0 339 74 24 34 33 39 82 46 67 9 97 10 220 2 l95 -7
-85 16 c-81 15 -197 14 -261 -1 l-26 -7 18 109 c10 59 18 123 19 141 0 31 0
32 19 13 11 -11 46 -23 87 -30 79 -14 117 -30 159 -64 l30 -25 -100 24 c-116
28 -145 30 -145 10 0 -21 4 -23 151 -54 175 -37 194 -48 214 -114 8 -28 15
-64 15 -80 l0 -28 -89 0 c-101 0 -103 -2 -137 -84 l-20 -51 -105 -20 c-57 -12
-110 -24 -117 -29 -17 -10 -15 -55 3 -62 14 -6 158 11 198 22 20 6 47 55 72
134 10 30 23 58 29 62 6 4 48 8 93 8 l82 0 8 -57 c4 -32 8 -128 7 -214 -1
-185 -12 -219 -97 -295 -49 -43 -289 -213 -403 -284 l-52 -32 -52 36 -52 36
-212 0 -211 -1 -55 -34 c-30 -19 -59 -35 -66 -35 -6 0 -47 25 -90 57 -335 241
-392 292 -415 377 -14 48 -18 329 -6 399 l8 47 73 0 c52 0 77 -4 86 -15 6 -8
20 -47 30 -86 10 -40 25 -78 32 -86 14 -13 158 -43 210 -43 39 0 55 33 28 60
-11 11 -24 20 -29 20 -29 0 -187 32 -196 40 -7 5 -17 29 -24 52 -21 71 -33 78
-123 78 l-80 0 7 43 c9 57 42 125 68 139 12 6 87 26 167 42 115 25 145 35 148
49 3 13 -3 17 -25 17 -29 -1 -175 -32 -205 -45 -35 -14 -17 5 35 39 38 25 72
38 127 46 60 10 80 18 100 40 l25 28 2 -32 c2 -17 8 -71 13 -121z m340 69 c0
-2 -7 -4 -15 -4 -8 0 -15 4 -15 10 0 5 7 7 15 4 8 -4 15 -8 15 -10z m204 -53
c-14 -23 -29 -41 -31 -41 -3 0 1 10 9 23 8 12 21 32 29 44 7 12 15 20 17 18 2
-2 -9 -22 -24 -44z m-298 -13 c8 -16 11 -28 6 -28 -5 0 -16 16 -25 35 -30 63
-17 58 19 -7z m-79 -10 c-3 -7 -5 -2 -5 12 0 14 2 19 5 13 2 -7 2 -19 0 -25z
m266 25 c-24 -2 -62 -2 -85 0 -24 2 -5 4 42 4 47 0 66 -2 43 -4z m184 -25 c-3
-8 -6 -5 -6 6 -1 11 2 17 5 13 3 -3 4 -12 1 -19z m-184 -25 c-24 -2 -62 -2
-85 0 -24 2 -5 4 42 4 47 0 66 -2 43 -4z m174 -25 c-3 -8 -6 -5 -6 6 -1 11 2
17 5 13 3 -3 4 -12 1 -19z m-87 -30 c-23 -35 -23 -31 -1 15 8 15 16 25 19 22
2 -2 -5 -19 -18 -37z m-266 -3 c15 -19 25 -35 22 -35 -8 0 -56 54 -56 62 0 14
7 8 34 -27z m-77 3 c-3 -8 -6 -5 -6 6 -1 11 2 17 5 13 3 -3 4 -12 1 -19z m293
12 c0 -6 -33 -9 -82 -8 l-83 2 80 6 c44 3 81 7 83 8 1 1 2 -2 2 -8z m127 -32
c-3 -8 -6 -5 -6 6 -1 11 2 17 5 13 3 -3 4 -12 1 -19z m-1227 -13 c14 -17 34
-244 25 -293 -3 -18 -11 -35 -18 -37 -7 -3 -91 -16 -187 -30 -96 -14 -192 -30
-212 -36 -48 -12 -99 -71 -166 -190 -37 -67 -52 -87 -52 -69 1 129 21 483 30
504 13 35 41 46 225 90 83 20 186 45 230 55 99 24 110 25 125 6z m2289 -54
c134 -38 247 -75 252 -82 5 -8 8 -21 5 -30 -7 -33 14 -346 29 -428 9 -46 14
-85 12 -87 -2 -3 -35 48 -73 112 -37 63 -80 124 -95 135 -33 23 -115 45 -286
74 -72 13 -136 26 -142 29 -14 9 -14 80 0 204 9 88 27 142 47 142 4 0 117 -31
251 -69z m-1226 52 c-24 -2 -62 -2 -85 0 -24 2 -5 4 42 4 47 0 66 -2 43 -4z
m843 -57 c10 -8 16 -17 13 -21 -11 -10 -59 6 -59 21 0 18 21 18 46 0z m-1760
-12 c-3 -9 -7 -34 -7 -57 -1 -23 -4 -32 -6 -19 -2 12 -9 22 -14 22 -10 0 -12
30 -3 54 3 9 13 16 21 16 10 0 13 -6 9 -16z m1743 -162 c-2 -126 -6 -117 -11
20 -2 53 0 94 4 92 4 -3 7 -53 7 -112z m-1810 -64 c-2 -149 -2 -151 -12 -76
-8 69 -2 228 9 228 2 0 3 -69 3 -152z m1869 118 c2 -10 -3 -23 -12 -29 -12 -9
-16 -36 -19 -112 l-3 -100 -2 110 c-1 61 1 120 4 133 7 26 27 24 32 -2z
m-1831 -188 c-2 -18 -4 -4 -4 32 0 36 2 50 4 33 2 -18 2 -48 0 -65z m391 58
c79 -13 114 -27 95 -39 -7 -4 -112 12 -180 28 -24 6 -32 25 -10 25 6 0 49 -6
95 -14z m1062 0 c-17 -16 -178 -47 -186 -35 -2 4 0 10 6 14 13 8 137 33 170
34 21 1 22 -1 10 -13z m407 -98 c-2 -13 -4 -3 -4 22 0 25 2 35 4 23 2 -13 2
-33 0 -45z m-2171 -117 c20 -15 31 -18 56 -11 38 12 66 36 71 64 4 20 4 20 6
-2 1 -32 -59 -92 -92 -92 -37 0 -67 30 -71 70 -2 19 -1 25 1 13 2 -13 15 -31
29 -42z m2274 34 c6 -15 21 -27 42 -33 39 -11 65 0 78 31 l9 22 0 -22 c1 -35
-34 -65 -72 -61 -18 2 -31 8 -31 13 1 6 -7 15 -16 22 -10 7 -20 22 -23 33 -7
28 2 25 13 -5z m-2235 -23 c15 -8 16 -11 5 -12 -18 0 -40 19 -40 35 0 7 3 6 8
-1 4 -6 16 -16 27 -22z m-48 -75 c43 -22 85 -28 123 -17 32 8 33 8 16 -5 -46
-35 -162 -2 -190 54 -22 42 -20 52 4 14 10 -18 32 -38 47 -46z m-140 -34 c-14
-48 -37 -148 -52 -221 -29 -147 -35 -165 -64 -202 -17 -21 -14 1 24 150 50
194 105 374 112 366 3 -2 -6 -44 -20 -93z m2583 62 c0 -17 -93 -65 -125 -65
-11 1 -31 7 -44 14 -22 12 -20 13 26 9 51 -5 96 10 122 41 17 20 21 20 21 1z
m121 -118 c6 17 6 17 12 -2 4 -11 22 -87 41 -170 19 -82 42 -170 51 -194 8
-25 14 -43 11 -40 -75 79 -83 98 -140 348 -42 181 -45 213 -8 113 19 -53 28
-68 33 -55z m-2630 63 c23 -10 82 -31 132 -46 120 -35 124 -37 138 -83 11 -36
9 -48 -26 -138 -20 -54 -61 -143 -90 -198 -29 -55 -60 -121 -70 -148 -10 -26
-19 -46 -21 -44 -2 2 24 85 57 186 34 100 59 185 55 188 -9 9 -7 14 -70 -178
l-57 -177 -71 32 c-39 17 -72 36 -74 41 -3 6 17 73 43 150 39 113 53 142 72
152 30 14 61 1 61 -27 0 -11 -16 -65 -35 -121 -19 -56 -35 -109 -34 -118 0 -9
18 34 40 94 21 61 43 118 49 128 14 23 2 65 -20 77 -32 17 -75 11 -97 -12 -11
-13 -37 -74 -58 -137 -20 -63 -47 -131 -60 -152 -13 -20 -31 -53 -39 -74 l-16
-38 -21 26 c-27 36 -18 81 32 156 34 51 42 76 69 212 31 155 59 269 67 269 2
0 22 -9 44 -20z m2598 -192 c36 -151 48 -186 82 -238 41 -64 67 -145 55 -175
-5 -15 -9 -15 -22 -4 -41 34 -117 164 -140 241 -40 133 -64 160 -130 144 -39
-10 -38 -43 6 -165 22 -62 45 -120 51 -129 13 -20 12 -19 -37 122 -40 114 -38
139 9 134 32 -3 33 -5 79 -141 66 -194 67 -185 -14 -211 l-68 -22 -50 150
c-43 128 -79 216 -80 196 0 -3 26 -85 58 -182 32 -98 55 -178 52 -178 -3 0
-25 55 -49 123 -24 67 -57 149 -74 182 -39 78 -77 180 -77 206 0 36 44 67 136
94 49 14 105 32 124 40 26 9 37 10 41 1 4 -6 25 -91 48 -188z m31 157 c0 -5
-5 -3 -10 5 -5 8 -10 20 -10 25 0 6 5 3 10 -5 5 -8 10 -19 10 -25z m-400 -29
c0 -8 -10 -18 -22 -22 -13 -3 -31 -13 -40 -22 -17 -14 -18 -13 -18 21 0 36 1
37 40 37 28 0 40 -4 40 -14z m-1750 -77 c17 -32 28 -59 26 -59 -3 0 2 -19 10
-42 10 -29 13 -59 9 -93 -9 -68 8 -124 47 -161 48 -45 64 -48 114 -20 l44 25
0 -22 c0 -29 -51 -84 -85 -93 -47 -12 -73 10 -115 98 -43 91 -73 193 -89 313
-20 144 -12 156 39 54z m1625 -45 c-26 -179 -91 -375 -137 -411 -34 -27 -100
-20 -142 16 -26 22 -56 90 -55 126 l0 30 10 -25 c21 -53 93 -106 128 -95 9 3
33 22 54 43 32 32 38 46 47 112 18 120 39 199 71 263 17 32 32 57 35 54 3 -2
-2 -53 -11 -113z m-1750 -31 c-8 -90 -36 -195 -52 -200 -18 -6 -10 75 16 167
12 41 21 85 21 98 0 14 4 21 11 16 8 -4 9 -30 4 -81z m1865 -82 c17 -68 29
-126 26 -129 -21 -21 -59 76 -75 191 -10 73 -4 118 11 81 4 -10 21 -75 38
-143z m-1580 18 c13 -9 12 -10 -3 -5 -22 7 -72 -17 -81 -39 -20 -54 8 -131 52
-141 45 -10 48 -11 28 -19 -24 -10 -45 3 -73 45 -34 48 -31 104 6 141 32 31
47 35 71 18z m1338 -9 c16 -16 22 -31 21 -63 l-1 -42 -8 39 c-10 51 -43 80
-85 72 -22 -4 -26 -3 -15 4 25 16 65 11 88 -10z m-1318 -60 c23 -23 26 -50 8
-68 -37 -37 -102 15 -80 63 14 30 45 32 72 5z m1272 8 c24 -20 29 -46 10 -57
-12 -7 -13 -10 -3 -11 24 0 -9 -30 -33 -30 -45 0 -62 55 -29 92 19 21 33 23
55 6z m-79 -130 c12 -10 18 -18 12 -17 -18 0 -44 25 -55 53 -16 42 -11 55 6
16 8 -19 25 -43 37 -52z m-1124 40 c-5 -18 -9 -34 -9 -35 0 -1 -9 -7 -21 -13
-19 -11 -20 -10 -10 9 6 11 16 23 21 26 6 3 10 15 10 26 0 10 4 19 9 19 6 0 6
-12 0 -32z m1244 -16 c-11 -14 -25 -28 -32 -30 -7 -2 -1 7 13 22 14 14 26 33
27 43 0 12 2 14 6 4 3 -7 -3 -25 -14 -39z m-1738 -83 c-15 -44 -29 -79 -31
-77 -2 2 9 44 23 92 15 49 29 84 31 77 2 -6 -8 -47 -23 -92z m2079 -10 c9 -29
13 -49 9 -45 -8 8 -43 116 -42 131 0 14 14 -22 33 -86z m-1127 65 c-15 -8 -25
-19 -22 -24 4 -6 1 -10 -5 -10 -14 0 -40 -62 -40 -96 0 -100 115 -160 203
-105 64 39 79 135 33 206 -17 26 -17 26 2 16 57 -31 71 -138 27 -204 -32 -47
-74 -68 -134 -69 -98 0 -156 58 -156 157 0 44 5 67 20 87 23 30 63 58 85 57 8
0 2 -7 -13 -15z m130 -34 c45 -27 63 -87 40 -135 -21 -44 -61 -70 -110 -70
-31 0 -45 7 -68 33 -24 26 -29 41 -29 81 0 43 4 52 35 80 42 37 85 40 132 11z
m185 -47 c-10 -26 -10 -24 -11 22 0 42 2 46 11 28 7 -15 7 -30 0 -50z m-532
-62 c0 -10 -3 -12 -10 -5 -6 6 -13 35 -15 65 l-5 54 15 -50 c8 -27 15 -57 15
-64z m1670 74 c0 -5 -5 -3 -10 5 -5 8 -10 20 -10 25 0 6 5 3 10 -5 5 -8 10
-19 10 -25z m-1606 -115 c-12 -11 -24 30 -23 80 l1 55 13 -65 c7 -36 11 -67 9
-70z m451 21 c-11 -45 -23 -7 -17 54 l6 60 8 -45 c5 -25 6 -56 3 -69z m75 -6
c-12 -31 -25 -53 -28 -51 -2 3 6 30 18 61 12 31 25 53 28 51 2 -3 -6 -30 -18
-61z m-1422 0 c-2 -10 -7 -12 -17 -5 -13 7 -13 11 -1 25 15 18 24 8 18 -20z
m812 -47 c0 -16 -4 -28 -10 -28 -5 0 -10 11 -10 24 0 13 -2 39 -5 57 l-5 34
14 -30 c9 -16 15 -42 16 -57z m650 60 c0 -24 -38 -94 -46 -86 -4 4 38 107 44
108 1 0 2 -10 2 -22z m30 -75 c-11 -17 -11 -17 -6 0 3 10 7 37 8 60 l1 42 4
-42 c2 -24 -1 -51 -7 -60z m-1443 60 c-9 -9 -20 -14 -24 -10 -3 4 2 14 13 21
25 19 33 10 11 -11z m2197 12 c7 -20 -21 -32 -37 -16 -9 9 -8 14 3 21 21 13
27 12 34 -5z m-1517 -17 c-3 -8 -6 -5 -6 6 -1 11 2 17 5 13 3 -3 4 -12 1 -19z
m47 -33 c5 -36 4 -46 -3 -35 -10 13 -16 99 -7 89 2 -2 6 -26 10 -54z m-1040
-2 c-8 -26 -12 -54 -9 -63 5 -15 84 -60 105 -60 5 0 23 30 40 66 18 36 34 63
37 61 3 -3 -10 -36 -29 -74 -39 -80 -53 -85 -134 -53 -42 17 -54 27 -54 44 0
21 45 126 54 126 2 0 -2 -21 -10 -47z m2785 15 c5 -18 11 -48 13 -67 3 -34 2
-35 -57 -53 -77 -24 -94 -21 -116 22 -20 42 -33 91 -22 88 5 0 21 4 36 10 15
7 40 14 55 17 15 3 5 -3 -23 -13 -27 -10 -51 -26 -53 -35 -2 -8 6 -34 17 -56
20 -38 22 -39 53 -30 76 21 88 30 88 63 0 50 -11 75 -34 79 -17 4 -16 5 6 6
22 1 28 -5 37 -31z m64 -54 c-7 -20 -20 -9 -26 23 -3 16 -9 37 -12 48 -4 11 5
3 18 -19 14 -21 23 -45 20 -52z m-2718 45 c5 -5 -5 -4 -23 2 -17 6 -32 13 -32
16 0 7 43 -8 55 -18z m872 -21 c-3 -7 -5 -2 -5 12 0 14 2 19 5 13 2 -7 2 -19
0 -25z m-1058 -2 c-7 -14 -17 -22 -25 -19 -18 7 0 43 21 43 12 0 12 -5 4 -24z
m171 -17 c0 -6 -7 -23 -15 -40 l-16 -29 -39 20 c-43 22 -45 26 -30 64 9 25 9
25 55 10 25 -9 45 -20 45 -25z m1073 12 l17 -30 -30 15 c-30 15 -36 25 -23 37
11 12 18 8 36 -22z m401 21 c3 -5 -9 -17 -26 -27 l-31 -18 19 26 c20 28 29 32
38 19z m1164 -24 c-3 -26 -9 -33 -43 -45 -36 -12 -41 -12 -53 4 -19 27 -11 45
28 59 60 21 72 18 68 -18z m-162 -105 c-6 -6 -46 94 -46 114 1 10 12 -11 26
-46 13 -35 23 -66 20 -68z m-2387 58 c-12 -29 -24 -49 -27 -46 -3 3 5 28 18
55 30 65 38 57 9 -9z m-440 -20 c-21 -37 -39 -72 -39 -77 0 -5 18 21 41 59 22
37 44 67 48 67 15 0 60 -40 66 -60 3 -11 -5 -48 -20 -84 -63 -158 -214 -571
-210 -575 9 -9 18 11 106 247 80 216 125 319 135 309 2 -1 -8 -30 -21 -63 -14
-32 -25 -67 -25 -77 0 -19 -4 -33 -100 -333 -52 -165 -64 -193 -86 -203 -47
-21 -64 -15 -64 25 0 19 4 33 9 29 13 -8 41 23 41 45 0 10 -17 32 -37 49 l-37
30 13 93 c6 51 23 149 36 217 14 69 23 126 21 129 -5 5 -41 -150 -61 -263 -23
-131 -24 -135 -40 -135 -7 0 -16 8 -20 18 -12 41 63 319 115 422 47 93 132
198 162 200 4 0 -11 -31 -33 -69z m1817 21 c-16 -32 -34 -48 -42 -39 -3 3 6
17 20 32 15 16 26 33 26 38 0 6 3 8 6 5 3 -4 -2 -20 -10 -36z m1404 -4 c20
-45 27 -39 10 8 -27 69 26 27 81 -66 48 -81 73 -154 98 -285 26 -134 29 -231
8 -252 -18 -18 -12 -35 -73 210 -20 81 -38 146 -41 144 -2 -2 14 -76 35 -163
61 -246 60 -229 12 -260 -47 -32 -62 -70 -35 -91 11 -7 25 -13 32 -13 8 0 13
-12 13 -31 0 -27 -3 -30 -22 -23 -56 17 -67 25 -77 56 -27 84 -113 448 -116
493 -2 28 -10 79 -19 115 -24 99 -21 119 21 162 20 21 41 38 45 38 5 0 17 -19
28 -42z m-1871 -81 c1 -11 -4 -17 -11 -15 -18 6 -32 73 -22 106 7 25 8 24 20
-23 6 -27 13 -58 13 -68z m99 40 c11 -23 25 -54 31 -69 l11 -28 110 0 110 0
24 39 c14 22 30 42 36 46 7 4 -5 -18 -25 -48 -39 -59 -56 -67 -145 -67 -89 0
-109 8 -136 59 -14 25 -36 64 -49 86 -14 22 -25 44 -25 49 0 18 38 -26 58 -67z
m472 3 c-12 -43 -27 -67 -35 -58 -6 6 -1 29 21 97 3 9 8 11 14 5 6 -6 6 -22 0
-44z m-622 -70 c1 -23 0 -23 -8 -5 -5 11 -8 34 -8 50 0 29 0 29 8 5 4 -14 8
-36 8 -50z m413 40 c-19 -16 -38 -20 -106 -20 -59 0 -86 4 -94 14 -10 12 -5
13 31 4 50 -11 155 -5 171 11 6 6 13 11 17 11 3 -1 -6 -10 -19 -20z m-1113
-30 c18 -27 22 -45 20 -87 -2 -29 -7 -53 -12 -53 -4 0 -6 -6 -3 -14 3 -8 3
-16 -1 -18 -4 -2 -17 -25 -30 -51 -26 -56 -43 -65 -78 -42 l-26 17 21 22 c43
46 61 136 41 205 -19 67 27 81 68 21z m2084 -41 c-3 -63 0 -86 22 -141 32 -79
32 -82 2 -96 -20 -9 -27 -7 -44 11 -36 40 -53 86 -59 165 -5 74 -4 79 22 110
45 54 61 40 57 -49z m187 2 c34 -24 127 -301 102 -301 -22 0 -83 90 -117 172
-42 100 -54 112 -24 22 34 -98 82 -175 123 -197 35 -18 39 -25 83 -160 49
-151 60 -229 34 -234 -19 -4 -39 28 -166 255 -138 246 -155 290 -147 380 5 58
9 72 27 80 25 12 52 7 85 -17z m-2420 0 c20 -36 11 -132 -18 -196 -43 -95
-287 -505 -300 -505 -5 0 -15 8 -23 18 -15 16 -11 31 39 177 30 88 57 168 60
178 3 9 15 17 27 17 24 0 61 36 93 90 21 34 73 158 73 169 -1 3 -25 -40 -54
-96 -55 -108 -81 -143 -102 -143 -16 0 -8 30 45 170 22 59 49 112 61 122 30
24 86 24 99 -1z m1397 -32 c-15 -22 -30 -38 -33 -35 -3 3 6 24 21 47 15 22 30
38 33 35 3 -3 -6 -24 -21 -47z m-468 8 c18 -51 14 -66 -8 -27 -20 37 -25 60
-12 60 4 0 13 -15 20 -33z m1732 -72 c70 -323 138 -592 156 -621 9 -13 12 -24
6 -24 -18 0 -23 15 -78 227 -29 112 -60 216 -69 230 -15 23 -22 25 -60 20 -24
-4 -49 -8 -55 -9 -13 -3 -33 49 -26 68 3 6 20 14 39 18 19 4 46 17 60 30 25
24 26 25 11 77 -16 63 -17 69 -4 49 5 -8 14 -37 20 -65z m-2026 48 c-5 -10
-11 -117 -14 -238 -7 -285 -24 -271 -29 24 -3 221 -2 230 38 231 9 0 11 -5 5
-17z m160 -9 c32 -14 103 -39 158 -55 146 -42 250 -41 423 6 72 19 147 43 168
52 35 15 38 15 57 -2 17 -16 20 -31 20 -111 l0 -92 -52 -57 c-44 -48 -52 -63
-56 -106 -3 -34 -11 -55 -26 -67 -11 -9 -50 -50 -85 -90 -34 -39 -71 -72 -80
-72 -10 0 -28 11 -41 25 l-23 25 27 92 c15 51 34 103 42 116 8 12 43 35 78 51
66 30 207 121 187 121 -18 0 -69 -28 -132 -73 -50 -35 -59 -38 -80 -27 -39 21
-52 -3 -118 -230 -8 -25 -9 -25 -111 -25 l-103 0 -24 70 c-57 170 -79 204
-123 190 -28 -9 -25 -21 9 -35 45 -18 59 -39 101 -149 l39 -102 -27 -30 -27
-29 -102 99 -103 99 0 52 c0 49 -3 55 -45 94 -54 50 -65 78 -65 167 0 61 3 73
25 94 13 14 26 25 28 25 3 0 30 -12 61 -26z m93 4 c-3 -8 -6 -5 -6 6 -1 11 2
17 5 13 3 -3 4 -12 1 -19z m144 5 c13 -16 12 -17 -3 -4 -10 7 -18 15 -18 17 0
8 8 3 21 -13z m250 -12 c-26 -36 -75 -46 -167 -36 -101 11 -82 20 31 17 101
-4 104 -3 126 22 30 35 35 33 10 -3z m407 17 c13 -13 17 -351 5 -423 -13 -76
-21 1 -22 213 -1 127 -5 202 -11 202 -5 0 -10 5 -10 10 0 14 23 13 38 -2z
m-1905 -30 c31 -12 33 -18 11 -63 -15 -32 -16 -32 -55 -22 -49 12 -55 24 -35
72 12 29 20 36 33 30 10 -4 30 -12 46 -17z m2819 -60 c-4 -3 -24 -13 -44 -21
-33 -14 -36 -14 -31 0 4 9 2 14 -3 11 -5 -4 -10 4 -10 15 -1 12 -4 28 -5 36
-3 8 10 18 31 26 35 12 35 12 52 -24 9 -20 14 -39 10 -43z m-2049 35 c-7 -2
-19 -2 -25 0 -7 3 -2 5 12 5 14 0 19 -2 13 -5z m1232 -3 l20 -9 -20 0 c-11 0
-29 4 -40 9 l-20 9 20 0 c11 0 29 -4 40 -9z m-1215 -95 l0 -75 -44 0 c-49 0
-56 -8 -56 -70 0 -43 18 -60 64 -60 21 0 26 -5 26 -24 0 -13 3 -31 6 -40 5
-14 -3 -16 -55 -16 -75 0 -75 -2 -69 196 4 164 4 164 81 164 l47 0 0 -75z
m1293 52 c9 -13 1 -312 -8 -328 -4 -5 -33 -9 -66 -9 l-59 0 0 35 c0 33 2 35
34 35 56 0 66 8 66 50 0 66 -14 90 -54 90 -39 0 -46 14 -46 99 l0 54 62 -7
c35 -4 67 -13 71 -19z m-2168 -27 c22 -11 49 -20 62 -20 30 0 33 -9 16 -51
l-14 -36 -50 14 c-45 13 -52 13 -68 -1 -10 -9 -23 -35 -30 -57 -7 -23 -14 -39
-16 -37 -2 2 7 41 21 87 13 46 24 92 24 102 0 24 6 24 55 -1z m310 -189 c9
-44 -34 -132 -115 -231 -34 -41 -80 -99 -103 -127 l-41 -52 -20 30 c-18 29
-18 33 -3 58 9 14 69 113 134 219 115 191 117 192 129 164 6 -16 15 -43 19
-61z m69 56 c8 -12 5 -27 -10 -59 l-21 -43 -11 45 c-6 25 -14 55 -17 67 -6 20
-5 21 21 14 15 -4 32 -14 38 -24z m466 13 c21 -7 18 -8 -18 -9 -26 -1 -41 3
-37 9 7 11 19 11 55 0z m1260 -10 c-20 -13 -60 -13 -60 0 0 6 17 10 38 10 27
0 33 -3 22 -10z m490 8 c0 -2 -9 -30 -19 -63 l-19 -60 -21 45 c-31 68 -28 80
19 80 22 0 40 -1 40 -2z m87 -65 c21 -37 75 -128 120 -202 l81 -136 -19 -31
c-10 -17 -19 -39 -19 -49 0 -12 -7 -7 -23 16 -13 19 -60 84 -105 144 -90 121
-122 177 -122 218 0 32 29 107 41 107 5 0 25 -30 46 -67z m302 -156 c43 -127
47 -147 32 -147 -34 0 -50 27 -90 154 -45 141 -47 152 -28 159 23 9 37 -18 86
-166z m-2967 133 c-1 -14 -23 -82 -49 -152 -44 -123 -47 -128 -74 -128 l-29 0
46 128 c25 70 50 140 56 155 14 38 54 35 50 -3z m-148 -84 c-15 -47 -30 -84
-32 -81 -2 2 9 42 24 89 15 47 30 84 32 81 2 -2 -9 -42 -24 -89z m1213 -49 c4
-7 0 -8 -11 -4 -10 4 -30 7 -44 8 -24 0 -24 1 -7 8 23 9 52 3 62 -12z m781 4
c-20 -4 -43 -12 -50 -17 -8 -5 -5 -1 5 9 11 9 33 16 51 16 31 -1 31 -1 -6 -8z
m-2148 -66 c0 -8 -4 -17 -10 -20 -6 -4 -10 5 -10 20 0 15 4 24 10 20 6 -3 10
-12 10 -20z m109 -34 c-7 -23 -14 -39 -16 -37 -3 2 1 23 8 45 7 23 14 39 16
37 3 -2 -1 -23 -8 -45z m1183 34 c-2 -5 -12 -9 -24 -7 -37 6 -68 -8 -89 -41
l-21 -32 7 30 c9 44 40 67 89 63 23 -2 40 -7 38 -13z m991 -16 c14 -20 17 -31
10 -44 -9 -15 -11 -13 -16 13 -4 22 -14 33 -37 40 -37 13 -39 24 -3 20 14 -2
35 -15 46 -29z m1217 6 c0 -15 -6 -25 -14 -25 -22 0 -30 19 -16 35 18 22 30
18 30 -10z m-2092 -45 c36 -22 66 -79 76 -145 4 -30 0 -22 -18 30 -29 85 -60
115 -119 115 -24 0 -54 -7 -67 -16 -22 -14 -22 -12 3 10 34 32 79 34 125 6z
m783 0 l24 -19 -42 16 c-26 9 -52 13 -69 9 -36 -9 -89 -66 -104 -112 -7 -19
-14 -33 -17 -30 -12 12 49 115 80 135 41 26 98 27 128 1z m-953 -10 c-7 -10
-14 -17 -17 -15 -4 4 18 35 25 35 2 0 -1 -9 -8 -20z m1012 -1 c0 -6 -4 -7 -10
-4 -5 3 -10 11 -10 16 0 6 5 7 10 4 6 -3 10 -11 10 -16z m-730 -74 c0 -5 -5
-3 -10 5 -5 8 -10 20 -10 25 0 6 5 3 10 -5 5 -8 10 -19 10 -25z m313 13 c14
-23 15 -23 36 -4 35 31 24 4 -15 -36 -34 -37 -37 -38 -108 -38 -80 0 -91 6
-106 58 -11 39 -7 40 96 41 74 1 83 -1 97 -21z m140 7 c-3 -9 -8 -14 -10 -11
-3 3 -2 9 2 15 9 16 15 13 8 -4z m-1903 -24 c-6 -12 -15 -21 -21 -21 -5 0 -2
11 7 25 20 30 31 26 14 -4z m-50 -17 l-10 -26 88 7 c89 7 132 -2 132 -27 0 -6
-6 -5 -17 3 -14 13 -16 11 -11 -12 4 -24 2 -26 -36 -27 -23 -1 -83 -9 -133
-19 -51 -9 -95 -14 -99 -11 -8 9 26 121 39 130 7 4 22 8 34 8 20 0 21 -3 13
-26z m3469 17 c10 -7 40 -102 41 -131 0 -3 -46 2 -102 12 -57 9 -117 17 -135
18 -23 0 -36 6 -44 22 -20 38 11 51 114 45 86 -4 87 -4 87 19 0 25 15 30 39
15z m-1950 -61 c0 -9 -4 -8 -9 5 -5 11 -9 27 -9 35 0 9 4 8 9 -5 5 -11 9 -27
9 -35z m408 -2 c-3 -7 -5 -2 -5 12 0 14 2 19 5 13 2 -7 2 -19 0 -25z m-198
-48 c71 0 75 1 107 36 l34 35 0 -46 c0 -25 -7 -59 -15 -75 l-16 -30 -110 0
-110 0 -13 33 c-7 17 -16 52 -19 76 l-5 44 37 -37 c36 -35 39 -36 110 -36z
m-1465 -13 c-9 -36 -22 -25 -16 13 3 20 8 28 14 22 5 -5 6 -21 2 -35z m2893
-14 c-3 -10 -5 -2 -5 17 0 19 2 27 5 18 2 -10 2 -26 0 -35z m-3016 -36 c-13
-13 -15 1 -4 30 7 17 8 17 11 -1 2 -10 -1 -23 -7 -29z m3105 -5 l1 -42 -4 40
c-5 44 -6 45 -34 30 -10 -6 -19 -7 -19 -2 0 15 14 23 35 20 16 -2 20 -11 21
-46z m-3138 6 c-2 -19 -10 -24 -40 -26 -29 -2 -38 1 -38 12 0 19 27 35 58 36
19 0 23 -5 20 -22z m3224 -18 c17 -30 17 -30 -7 -30 -21 0 -25 5 -25 30 0 38
10 38 32 0z m-3059 3 c4 -3 -3 -11 -16 -17 -12 -7 -24 -24 -27 -41 -5 -25 -7
-27 -13 -12 -11 28 -9 35 13 57 21 21 32 24 43 13z m2853 -29 c-3 -8 -10 -13
-15 -10 -5 4 -19 -6 -30 -21 -11 -16 -21 -23 -21 -18 0 17 64 89 68 76 2 -6 1
-19 -2 -27z m79 11 c21 -20 33 -45 22 -45 -2 0 -18 16 -37 35 -19 19 -28 35
-22 35 7 0 24 -11 37 -25z m-16 -36 c13 -17 20 -33 18 -36 -6 -5 -66 57 -67
69 0 15 28 -4 49 -33z m-2999 21 c0 -5 -8 -10 -19 -10 -27 0 -44 -26 -38 -57
5 -26 4 -26 -9 -8 -19 26 -18 41 6 65 21 21 60 27 60 10z m148 -6 c27 -19 28
-30 2 -37 -30 -8 -36 -36 -16 -71 l18 -31 -31 30 c-17 17 -31 38 -31 47 0 23
29 50 47 44 8 -3 11 -1 8 4 -17 27 -74 -6 -76 -44 0 -20 -1 -20 -12 3 -10 20
-8 26 16 47 33 28 45 29 75 8z m-288 -38 c0 -44 -32 -99 -66 -115 -40 -18 -40
-6 0 35 29 30 36 45 36 76 0 27 4 38 15 38 10 0 15 -10 15 -34z m-52 -6 c2
-23 -5 -34 -29 -52 -17 -13 -37 -34 -45 -48 -18 -34 -18 -7 1 58 21 71 69 99
73 42z m212 -21 c0 -4 -5 -11 -12 -15 -8 -5 -9 -2 -5 9 3 9 2 19 -3 22 -6 4
-10 -4 -10 -16 0 -18 -2 -19 -15 -9 -18 15 -19 32 -2 49 10 10 15 8 30 -10 9
-11 17 -25 17 -30z m2959 25 c11 -15 18 -31 14 -37 -4 -6 -15 1 -27 16 -12 15
-27 27 -34 27 -7 0 -10 5 -7 10 11 17 33 11 54 -16z m213 -51 c3 -35 1 -63 -3
-63 -12 0 -22 87 -14 117 9 35 13 25 17 -54z m72 -81 c-1 -1 -13 2 -27 9 -22
10 -26 19 -29 64 -5 91 3 93 31 10 14 -44 26 -81 25 -83z m-140 129 c10 -11
16 -26 13 -33 -3 -8 -6 -6 -6 5 -1 10 -5 16 -10 13 -5 -3 -14 1 -21 9 -26 32
-67 7 -48 -29 10 -19 10 -20 -5 -7 -10 7 -17 19 -17 25 0 37 65 49 94 17z
m156 -44 c6 -23 14 -51 17 -62 4 -15 -1 -12 -19 10 -14 17 -30 49 -35 72 -10
40 -10 42 8 33 10 -6 23 -29 29 -53z m-200 15 c0 -15 -2 -15 -10 -2 -13 20
-13 33 0 25 6 -3 10 -14 10 -23z m-2905 8 c-3 -5 -11 -10 -16 -10 -6 0 -7 5
-4 10 3 6 11 10 16 10 6 0 7 -4 4 -10z m-260 -83 c5 4 -6 -11 -24 -34 -38 -49
-53 -58 -20 -12 18 25 20 40 16 82 l-5 52 12 -48 c6 -28 15 -45 21 -40z m309
56 c9 -24 -9 -39 -29 -23 -12 10 -13 16 -4 26 15 19 25 18 33 -3z m2666 -19
c0 -18 -36 -18 -43 0 -7 19 0 25 24 19 10 -3 19 -12 19 -19z m70 11 c-7 -8
-18 -15 -24 -15 -6 0 -2 7 8 15 25 19 32 19 16 0z m193 -25 c3 -11 1 -18 -4
-14 -5 3 -9 12 -9 20 0 20 7 17 13 -6z m-3299 -31 c-9 -10 -22 -19 -28 -19 -6
0 0 7 12 16 12 8 22 23 23 32 0 11 2 13 6 4 3 -7 -3 -22 -13 -33z m3292 -30
c18 -40 18 -42 0 -55 -26 -18 -36 -9 -29 26 3 17 0 36 -6 43 -10 13 -6 27 9
27 4 0 15 -19 26 -41z m-3177 -16 c-1 -35 -1 -36 -9 -11 -4 14 -11 31 -15 37
-3 6 1 11 9 11 12 0 16 -10 15 -37z m2864 20 c-4 -11 -3 -14 5 -9 7 4 12 2 12
-3 0 -6 -4 -11 -9 -11 -14 0 -23 18 -16 30 10 16 15 12 8 -7z m-3030 -17 c-3
-14 -14 -33 -25 -43 -19 -17 -19 -17 -16 12 2 23 22 48 44 55 1 0 -1 -11 -3
-24z m425 6 c2 -7 -3 -12 -12 -12 -9 0 -16 7 -16 16 0 17 22 14 28 -4z m2986
-1 c28 -19 64 -81 46 -81 -5 0 -11 9 -15 20 -3 11 -23 33 -43 50 -41 33 -33
40 12 11z m-3276 -15 c2 -9 1 -25 -3 -34 -5 -14 -7 -14 -15 -2 -14 22 -12 62
3 58 6 -3 14 -12 15 -22z m3346 9 c3 -8 1 -15 -4 -15 -6 0 -10 7 -10 15 0 8 2
15 4 15 2 0 6 -7 10 -15z m-3544 -20 c-7 -8 -17 -15 -22 -15 -6 0 -5 7 2 15 7
8 17 15 22 15 6 0 5 -7 -2 -15z m525 -15 c-3 -5 -16 -10 -28 -10 -18 0 -19 2
-7 10 20 13 43 13 35 0z m3064 -4 c11 -14 5 -46 -9 -46 -15 0 -32 30 -26 45 7
19 20 19 35 1z m-3514 -16 c-10 -11 -25 -20 -34 -20 -10 0 -5 8 14 20 38 25
43 25 20 0z m3012 14 c-3 -3 -12 -4 -19 -1 -8 3 -5 6 6 6 11 1 17 -2 13 -5z
m-2558 -56 c0 -28 -2 -30 -9 -13 -12 28 -12 45 0 45 6 0 10 -15 9 -32z m2552
19 c-1 -4 -1 -14 -1 -22 0 -8 -4 -15 -10 -15 -5 0 -10 12 -10 26 0 14 5 24 11
22 6 -2 10 -7 10 -11z m354 -6 c7 -12 -12 -24 -25 -16 -11 7 -4 25 10 25 5 0
11 -4 15 -9z m-3402 -41 c6 -22 -8 -28 -17 -7 -5 9 -7 9 -12 -1 -6 -13 -24 -7
-24 8 0 7 15 14 41 19 4 0 9 -8 12 -19z m281 4 c3 -8 2 -12 -4 -9 -6 3 -10 10
-10 16 0 14 7 11 14 -7z m-184 -72 c0 -8 -11 0 -25 16 -16 19 -23 36 -18 47 5
15 9 12 24 -16 10 -19 18 -40 19 -47z m60 68 c0 -5 -10 -10 -22 -10 -19 0 -20
2 -8 10 19 13 30 13 30 0z m3233 -7 c-7 -2 -19 -2 -25 0 -7 3 -2 5 12 5 14 0
19 -2 13 -5z m177 -11 c0 -13 -12 -22 -22 -16 -10 6 -1 24 13 24 5 0 9 -4 9
-8z m-72 -43 c-13 -38 -18 -37 -18 6 0 26 4 33 14 29 11 -4 12 -12 4 -35z
m-71 9 c-3 -8 -6 -5 -6 6 -1 11 2 17 5 13 3 -3 4 -12 1 -19z m-3417 -33 c0 -5
-5 -3 -10 5 -5 8 -10 20 -10 25 0 6 5 3 10 -5 5 -8 10 -19 10 -25z m53 -65
c-4 -4 -19 -11 -33 -14 l-25 -7 24 20 c21 19 54 19 34 1z m3427 5 c8 -10 9
-19 4 -25 -5 -5 -16 2 -27 16 -14 19 -15 24 -4 24 8 0 20 -7 27 -15z m-3252
-20 c-3 -3 -9 2 -12 12 -6 14 -5 15 5 6 7 -7 10 -15 7 -18z m-25 -16 c4 -16 3
-18 -9 -8 -7 6 -11 15 -8 20 8 13 11 11 17 -12z m3216 -35 c-14 -38 -19 -45
-29 -39 -13 8 10 65 26 65 10 0 11 -6 3 -26z m-3330 -16 c5 -13 7 -25 4 -28
-5 -6 -33 30 -33 42 0 17 21 7 29 -14z"/>
<path d="M2705 4406 c-16 -23 -24 -26 -78 -26 -49 0 -65 4 -84 22 -29 27 -31
10 -2 -21 18 -19 29 -21 86 -19 58 3 68 6 86 30 11 15 18 30 15 34 -4 3 -14
-6 -23 -20z"/>
<path d="M2770 4170 c-9 -6 -10 -10 -3 -10 6 0 15 5 18 10 8 12 4 12 -15 0z"/>
<path d="M2540 3780 c0 -6 33 -10 79 -10 44 0 83 5 86 10 4 6 -25 10 -79 10
-51 0 -86 -4 -86 -10z"/>
<path d="M2026 3409 c-52 -41 -18 -139 48 -139 41 0 80 41 80 85 0 68 -72 98
-128 54z"/>
<path d="M3055 3405 c-33 -33 -32 -70 4 -106 37 -37 65 -37 103 1 25 26 29 36
24 63 -13 65 -85 89 -131 42z"/>
<path d="M2384 3076 c-26 -21 -28 -31 -39 -147 -18 -183 -9 -229 63 -316 l34
-43 143 0 143 0 27 31 c62 74 68 101 60 244 -5 71 -8 149 -9 171 -1 26 -8 50
-20 63 -18 20 -29 21 -197 21 -172 0 -179 -1 -205 -24z m386 -4 c19 -16 23
-29 25 -106 l3 -88 -19 40 c-35 69 -56 77 -198 75 -149 -3 -155 -7 -201 -122
l-30 -76 6 110 c3 61 11 121 17 135 19 38 66 49 228 49 127 1 150 -1 169 -17z
m4 -222 l7 -25 -15 25 c-17 28 -21 50 -7 35 5 -6 12 -21 15 -35z m-23 -16 c12
-25 19 -47 17 -50 -2 -2 -14 19 -25 46 -12 28 -19 50 -17 50 3 0 14 -21 25
-46z m-354 -36 c-3 -7 -5 -2 -5 12 0 14 2 19 5 13 2 -7 2 -19 0 -25z m231 20
c7 -7 12 -27 12 -44 0 -59 -62 -78 -95 -31 -32 46 -13 87 40 87 17 0 36 -5 43
-12z m-125 -13 c-3 -9 -8 -14 -10 -11 -3 3 -2 9 2 15 9 16 15 13 8 -4z m174
-77 c-2 -13 -4 -3 -4 22 0 25 2 35 4 23 2 -13 2 -33 0 -45z m-190 15 c-3 -10
-5 -4 -5 12 0 17 2 24 5 18 2 -7 2 -21 0 -30z"/>
<path d="M1825 2882 c11 -12 378 -172 395 -172 5 0 10 6 10 13 0 7 -30 24 -67
37 -38 13 -124 45 -193 73 -162 64 -157 62 -145 49z"/>
<path d="M3135 2816 c-99 -39 -186 -75 -193 -79 -16 -11 -16 -31 1 -24 6 3 93
40 192 81 158 67 221 99 190 95 -6 -1 -91 -33 -190 -73z"/>
<path d="M1035 3218 c-10 -35 -19 -99 -21 -143 l-3 -80 13 95 c8 53 19 115 26
139 6 24 9 45 7 47 -2 3 -12 -24 -22 -58z"/>
<path d="M1100 3105 c-7 -25 -11 -48 -8 -51 3 -2 11 16 18 41 7 25 11 48 8 51
-3 2 -11 -16 -18 -41z"/>
<path d="M4083 3230 c0 -25 2 -35 4 -22 2 12 2 32 0 45 -2 12 -4 2 -4 -23z"/>
<path d="M4092 3150 c0 -19 2 -27 5 -17 2 9 2 25 0 35 -3 9 -5 1 -5 -18z"/>
<path d="M4000 3106 c0 -12 29 -76 35 -76 3 0 -2 17 -10 37 -16 38 -25 52 -25
39z"/>
<path d="M4102 3085 c0 -16 2 -22 5 -12 2 9 2 23 0 30 -3 6 -5 -1 -5 -18z"/>
<path d="M4112 3030 c0 -14 2 -19 5 -12 2 6 2 18 0 25 -3 6 -5 1 -5 -13z"/>
<path d="M861 1804 c0 -11 3 -14 6 -6 3 7 2 16 -1 19 -3 4 -6 -2 -5 -13z"/>
<path d="M851 1764 c0 -11 3 -14 6 -6 3 7 2 16 -1 19 -3 4 -6 -2 -5 -13z"/>
<path d="M4201 2024 c0 -11 3 -14 6 -6 3 7 2 16 -1 19 -3 4 -6 -2 -5 -13z"/>
<path d="M4141 1841 c-1 -21 98 -401 109 -420 17 -30 10 4 -50 219 -32 118
-59 209 -59 201z"/>
<path d="M2180 1819 c8 -5 35 -21 60 -34 62 -33 143 -118 185 -195 19 -36 35
-61 35 -56 0 4 -16 38 -35 75 -42 81 -109 148 -188 190 -56 30 -88 41 -57 20z"/>
<path d="M2910 1820 c-8 -5 -10 -10 -5 -10 6 0 17 5 25 10 8 5 11 10 5 10 -5
0 -17 -5 -25 -10z"/>
<path d="M2840 1790 c-8 -5 -10 -10 -5 -10 6 0 17 5 25 10 8 5 11 10 5 10 -5
0 -17 -5 -25 -10z"/>
<path d="M2120 1736 c0 -7 146 -116 155 -116 4 0 -27 27 -70 60 -75 58 -85 65
-85 56z"/>
<path d="M2720 1711 c-22 -31 -53 -101 -48 -106 2 -2 19 28 39 66 20 38 35 69
33 69 -1 0 -12 -13 -24 -29z"/>
<path d="M2741 1399 c-6 -18 -11 -37 -10 -43 0 -6 7 7 15 28 8 22 12 41 10 43
-2 2 -9 -10 -15 -28z"/>
<path d="M2370 1415 c0 -5 5 -17 10 -25 5 -8 10 -10 10 -5 0 6 -5 17 -10 25
-5 8 -10 11 -10 5z"/>
<path d="M4335 760 c-4 -6 -3 -16 3 -22 6 -6 12 -6 17 2 4 6 3 16 -3 22 -6 6
-12 6 -17 -2z"/>
<path d="M2293 965 c21 -73 68 -263 82 -328 9 -43 19 -76 22 -74 11 12 -84
398 -103 416 -3 3 -4 -3 -1 -14z"/>
<path d="M2787 883 c-23 -138 -37 -249 -36 -286 1 -19 5 -8 10 28 5 33 18 125
30 203 23 163 21 202 -4 55z"/>
</g>
</svg>